# xmcd
#
# Track frame offsets:
#	187
#	22747
#	39762
#	54992
#	71302
#	85435
#	108240
#	128562
#	145565
#
# Disc length: 2180 seconds
#
# Revision: 1
# Processed by: cddbd v1.5.1PL0 Copyright (c) Steve Scherf et al.
# Submitted via: CDex 1.50Beta5
#
DISCID=60088209
DTITLE=矢野一美 - In My Heart 〜うけとめて〜
DYEAR=1997
DGENRE=Pop
TTITLE0=恋の応援歌
TTITLE1=恋は素敵なプロローグ
TTITLE2=Dear・・・
TTITLE3=Dokka行こうよ
TTITLE4=アリスの丘でつかまえて
TTITLE5=夏際みたいに
TTITLE6=Shoot 〜明日に向かって〜
TTITLE7=国語　数学　理科　恋愛
TTITLE8=そよ風
EXTD=
EXTT0=
EXTT1=
EXTT2=
EXTT3=
EXTT4=
EXTT5=
EXTT6=
EXTT7=
EXTT8=
PLAYORDER=
